# xmcd
#
# Track frame offsets: 
#        150
#        13309
#        30230
#        43334
#        62911
#        78534
#        92788
#        107641
#        120113
#        131095
#        144584
#        158173
#
# Disc length: 2371 seconds
#
# Revision: 0
# Processed by: cddbd v1.5.2PL0 Copyright (c) Steve Scherf et al.
# Submitted via: ExactAudioCopy v0.99pb4
#
DISCID=9d09410c
DTITLE=Willier - Dreams in Counrty
DYEAR=1900
DGENRE=Country
TTITLE0=Amarillo By Morning
TTITLE1=Blue Bayou
TTITLE2=18 Weels Ans a Dozen Rosen
TTITLE3=Grandpa
TTITLE4=Beautiful Body
TTITLE5=Listen To The Radio
TTITLE6=Luckenbach Texas
TTITLE7=Okie From Muskogee
TTITLE8=Hello Darlin'
TTITLE9=Thank God For The Radio
TTITLE10=Teddy Bear Song
TTITLE11=Back Home Again
EXTD=
EXTT0=
EXTT1=
EXTT2=
EXTT3=
EXTT4=
EXTT5=
EXTT6=
EXTT7=
EXTT8=
EXTT9=
EXTT10=
EXTT11=
PLAYORDER=
